<svg xmlns="http://www.w3.org/2000/svg" width="256" height="256" viewBox="0 0 100 100"><rect width="100" height="100" rx="20" fill="#4f1866"></rect><path d="M8.51 40.28L8.51 78.80Q8.06 78.98 7.16 79.20Q6.26 79.43 5.18 79.43L5.18 79.43Q1.31 79.43 1.31 76.19L1.31 76.19L1.31 37.58Q1.76 37.40 2.71 37.18Q3.65 36.95 4.73 36.95L4.73 36.95Q8.51 36.95 8.51 40.28L8.51 40.28ZM0.23 24.26L0.23 24.26Q0.23 22.37 1.54 21.07Q2.84 19.76 4.91 19.76L4.91 19.76Q6.98 19.76 8.24 21.07Q9.50 22.37 9.50 24.26L9.50 24.26Q9.50 26.15 8.24 27.46Q6.98 28.76 4.91 28.76L4.91 28.76Q2.84 28.76 1.54 27.46Q0.23 26.15 0.23 24.26ZM37.40 74.30L37.40 74.30Q41.18 74.30 43.66 73.54Q46.13 72.77 47.21 72.05L47.21 72.05L47.21 59L36.05 60.17Q31.37 60.62 29.12 62.29Q26.87 63.95 26.87 67.19L26.87 67.19Q26.87 70.61 29.48 72.45Q32.09 74.30 37.40 74.30ZM37.31 36.23L37.31 36.23Q45.14 36.23 49.73 39.74Q54.32 43.25 54.32 50.81L54.32 50.81L54.32 72.14Q54.32 74.12 53.55 75.16Q52.79 76.19 51.26 77.09L51.26 77.09Q49.10 78.35 45.55 79.30Q41.99 80.24 37.40 80.24L37.40 80.24Q28.94 80.24 24.30 76.91Q19.67 73.58 19.67 67.28L19.67 67.28Q19.67 61.34 23.54 58.33Q27.41 55.31 34.43 54.59L34.43 54.59L47.21 53.33L47.21 50.81Q47.21 46.31 44.51 44.24Q41.81 42.17 37.22 42.17L37.22 42.17Q33.44 42.17 30.11 43.25Q26.78 44.33 24.17 45.68L24.17 45.68Q23.45 45.05 22.87 44.24Q22.28 43.43 22.28 42.44L22.28 42.44Q22.28 41.18 22.91 40.37Q23.54 39.56 24.89 38.84L24.89 38.84Q27.32 37.58 30.47 36.91Q33.62 36.23 37.31 36.23ZM86.72 42.26L86.72 42.26Q83.66 42.26 81.05 43.30Q78.44 44.33 76.55 46.36Q74.66 48.38 73.58 51.40Q72.50 54.41 72.50 58.28L72.50 58.28Q72.50 66.02 76.37 70.12Q80.24 74.21 86.72 74.21L86.72 74.21Q90.50 74.21 93.02 73.18Q95.54 72.14 97.52 70.79L97.52 70.79Q98.51 71.33 99.14 72.14Q99.77 72.95 99.77 74.12L99.77 74.12Q99.77 75.38 98.78 76.46Q97.79 77.54 96.03 78.35Q94.28 79.16 91.89 79.66Q89.51 80.15 86.72 80.15L86.72 80.15Q82.04 80.15 78.08 78.80Q74.12 77.45 71.24 74.75Q68.36 72.05 66.74 67.95Q65.12 63.86 65.12 58.28L65.12 58.28Q65.12 52.79 66.83 48.70Q68.54 44.60 71.42 41.81Q74.30 39.02 78.21 37.63Q82.13 36.23 86.54 36.23L86.54 36.23Q89.33 36.23 91.71 36.73Q94.10 37.22 95.81 38.12Q97.52 39.02 98.46 40.15Q99.41 41.27 99.41 42.44L99.41 42.44Q99.41 43.52 98.78 44.33Q98.15 45.14 97.16 45.59L97.16 45.59Q95.18 44.24 92.84 43.25Q90.50 42.26 86.72 42.26Z" fill="#fff"></path></svg>